<svg width="189" height="13" viewBox="0 0 189 13" fill="none" xmlns="http://www.w3.org/2000/svg">
<g id="Frame">
<path id="Vector" fill-rule="evenodd" clip-rule="evenodd" d="M177.746 11.2952C181.462 11.2952 183.347 9.16196 185.011 7.28243C185.436 6.79844 185.399 6.05603 184.923 5.62373C184.447 5.19144 183.717 5.22903 183.292 5.71301C181.757 7.44688 180.431 8.94582 177.746 8.94582C175.056 8.94582 173.734 7.44688 172.2 5.71301C170.536 3.83347 168.655 1.7002 164.94 1.7002C161.224 1.7002 159.338 3.83347 157.674 5.71301C156.14 7.44688 154.818 8.94582 152.129 8.94582C149.439 8.94582 148.117 7.44688 146.583 5.71301C144.919 3.83347 143.038 1.7002 139.318 1.7002C135.602 1.7002 133.716 3.83347 132.057 5.71301C130.523 7.44688 129.196 8.94582 126.511 8.94582C123.826 8.94582 122.5 7.44688 120.965 5.71301C119.302 3.83347 117.421 1.7002 113.705 1.7002C109.989 1.7002 108.104 3.83347 106.444 5.71301C104.91 7.44688 103.588 8.94582 100.899 8.94582C98.2088 8.94582 96.887 7.44688 95.3527 5.71301L95.5237 5.90566C95.4867 5.83988 95.4405 5.7741 95.385 5.71301C93.7213 3.83347 91.8403 1.7002 88.1199 1.7002C84.4042 1.7002 82.5186 3.83347 80.8548 5.71301C79.3205 7.44688 77.9941 8.94582 75.309 8.94582C72.6192 8.94582 71.2974 7.44688 69.7631 5.71301C68.0993 3.83347 66.2183 1.7002 62.5026 1.7002C58.7869 1.7002 56.9013 3.83347 55.2421 5.71301C53.7078 7.44688 52.386 8.94582 49.6963 8.94582C47.0065 8.94582 45.6847 7.44688 44.1504 5.71301C42.4866 3.83347 40.6056 1.7002 36.8899 1.7002C33.1742 1.7002 31.2886 3.83347 29.6294 5.71301C28.0951 7.44688 26.7733 8.94582 24.0836 8.94582C21.3938 8.94582 20.072 7.44688 18.5377 5.71301C16.8739 3.83347 14.993 1.7002 11.2772 1.7002C7.56148 1.7002 5.67588 3.83347 4.01674 5.71301L3.99826 5.73181C3.56383 6.21579 3.6008 6.9582 4.07682 7.3905C4.55284 7.82279 5.27843 7.7852 5.70823 7.30122L5.72672 7.28243C7.26108 5.54855 8.58285 4.04962 11.2726 4.04962C13.9623 4.04962 15.2841 5.54855 16.8185 7.28243C18.4822 9.16196 20.3632 11.2952 24.0789 11.2952C27.7947 11.2952 29.6803 9.16196 31.3394 7.28243C32.8738 5.54855 34.1955 4.04962 36.8853 4.04962C39.575 4.04962 40.8968 5.54855 42.4312 7.28243C44.0949 9.16196 45.9759 11.2952 49.6916 11.2952C53.4074 11.2952 55.293 9.16196 56.9521 7.28243C58.4865 5.54855 59.8082 4.04962 62.498 4.04962C65.1877 4.04962 66.5095 5.54855 68.0439 7.28243C69.7076 9.16196 71.5886 11.2952 75.3043 11.2952C79.0201 11.2952 80.9057 9.16196 82.5694 7.28243C84.1038 5.54855 85.4256 4.04962 88.1153 4.04962C90.6941 4.04962 92.0159 5.42638 93.4763 7.07098C93.5133 7.13676 93.5595 7.20254 93.615 7.26363L93.6335 7.28243C95.2972 9.16196 97.1782 11.2952 100.894 11.2952C104.61 11.2952 106.495 9.16196 108.154 7.28243C109.689 5.54855 111.011 4.04962 113.7 4.04962C116.39 4.04962 117.712 5.54855 119.246 7.28243C120.91 9.16196 122.791 11.2952 126.507 11.2952C130.222 11.2952 132.108 9.16196 133.767 7.28243C135.301 5.54855 136.628 4.04962 139.313 4.04962C142.003 4.04962 143.324 5.54855 144.859 7.28243C146.523 9.16196 148.404 11.2952 152.119 11.2952C155.835 11.2952 157.721 9.16196 159.384 7.28243C160.919 5.54855 162.241 4.04962 164.93 4.04962C167.62 4.04962 168.942 5.54855 170.476 7.28243C172.149 9.16666 174.03 11.2952 177.746 11.2952Z" fill="#585880" stroke="#585880" stroke-width="3" stroke-miterlimit="10" stroke-linejoin="round"/>
</g>
</svg>
